<?xml version="1.0" standalone="no"?><!DOCTYPE svg PUBLIC "-//W3C//DTD SVG 1.1//EN" "http://www.w3.org/Graphics/SVG/1.1/DTD/svg11.dtd"><svg t="1646883914168" class="icon" viewBox="0 0 1024 1024" version="1.1" xmlns="http://www.w3.org/2000/svg" p-id="3650" width="128" height="128" xmlns:xlink="http://www.w3.org/1999/xlink"><defs><style type="text/css"></style></defs><path d="M512 512m-435.05 0a435.05 435.05 0 1 0 870.1 0 435.05 435.05 0 1 0-870.1 0Z" fill="#2C3D71" p-id="3651"></path><path d="M928.85 636.6l-2.51-5.48s-25.9-5.18-40.14-9.71-34.31-2.59-34.31-2.59-44.67 17.48-92.58 20.72-86.75-13.6-110.06-21.36-80.28 18.13-88 20.07-80.33 8.41-106.25-1.95-77.66-15.54-102.91-12.3-62.8 27.84-83.51 27.84-20.72 0-75.75-21.36c-50.21-19.49-91.14 1.38-97.94 5.19C148.18 815.68 314.7 947.05 512 947.05c197 0 363.26-130.92 416.85-310.45z" fill="#8DA0B7" p-id="3652"></path><path d="M109.15 629c9.9-4.71 20.94-6.92 31.94-7.93a155.39 155.39 0 0 1 33.26 1c11.07 1.37 21.88 4.18 32.59 7.28 5.34 1.61 10.54 3.61 15.8 5.46l15.39 6.53-0.47-0.21c17.8 5.49 38.82 6.94 53.78-1.59 17.64-10.09 37.24-20.05 58.26-24.65a177.54 177.54 0 0 1 64.12-3.44c21.33 2.67 41.91 8.93 61.46 17l-1-0.36a120.46 120.46 0 0 0 12.48 2.73c4.35 0.77 8.77 1.29 13.2 1.73a200 200 0 0 0 26.68 0.62 185.9 185.9 0 0 0 26.48-3.17c8.56-1.81 17.52-4.37 26.35-7 17.58-5.39 36.38-12 56.87-13.36a129.18 129.18 0 0 1 30.15 1.36c5 0.6 9.73 1.84 14.58 2.81 4.73 1.24 9.49 2.46 14.1 4l13.57 4.45c4.31 1.36 8.59 2.89 13 3.89l6.57 1.68 6.64 1.27c4.42 1 8.91 1.34 13.38 2a172.83 172.83 0 0 0 27 0.58 163.5 163.5 0 0 0 26.89-4.16c8.91-2.05 17.65-5.09 27.2-7.41 4.33-1 8.91-2.53 13.81-3.52a60.13 60.13 0 0 1 14.83-1.16c19.62 1 37.57 7.36 55.31 13.66-9.2-2.08-18.4-4.09-27.66-5.5s-18.55-2.56-27.58-1.95a58 58 0 0 0-13.13 2.13c-4.26 1.22-8.51 3-13.23 4.58-8.58 2.77-17.34 6.83-26.65 9.55a166.24 166.24 0 0 1-57.89 7.5c-4.88-0.43-9.81-0.62-14.64-1.44l-7.28-1-7.19-1.48c-4.83-0.87-9.51-2.28-14.23-3.54l-13.45-3.73c-4.4-1.2-8.83-2.08-13.22-3.14-4.41-0.73-8.81-1.77-13.21-2.15a110.77 110.77 0 0 0-26.15-0.5c-17.22 1.57-34.2 8-52.48 13.73-9.16 2.84-18.28 5.58-28.13 7.76a206.21 206.21 0 0 1-29.52 3.93 185.17 185.17 0 0 1-29.72-0.63c-4.94-0.53-9.86-1.17-14.77-2.08a135.8 135.8 0 0 1-15-3.49l-0.41-0.12-0.55-0.23a224.56 224.56 0 0 0-56-16.23 158.68 158.68 0 0 0-57.58 1.45c-19.07 3.82-36.88 11.41-55 20.78-10.56 5.33-22.48 7-33.44 6.31a106 106 0 0 1-31.91-7.25l-0.25-0.1-0.23-0.11-14.33-7.21c-4.92-2.05-9.77-4.35-14.73-6.34-10-3.8-20.13-7.36-30.62-9.54a159.78 159.78 0 0 0-31.89-4.09c-10.79-0.1-21.78 0.55-32.15 4.04zM201.15 699.16c11.29-10.59 27.26-16.28 43.51-16.55a73.72 73.72 0 0 1 24.15 3.8 83.44 83.44 0 0 1 11.31 4.72l5 2.61c1.53 0.84 3.12 1.55 4.7 2.28a114.79 114.79 0 0 0 40.37 10.41 147.16 147.16 0 0 0 43.71-3.59c-12.3 9.38-27.79 14.39-43.61 15.78a93.78 93.78 0 0 1-47-8.5c-1.82-0.87-3.64-1.73-5.39-2.72l-4.9-2.69a84.82 84.82 0 0 0-29-9.9 92.91 92.91 0 0 0-42.85 4.35zM443.88 706.52c1.53-0.81 2.54-2.28 3.75-3.55l3.66-3.87a74.78 74.78 0 0 1 8.25-7.06 63.87 63.87 0 0 1 20-9.74 70.43 70.43 0 0 1 22.46-2.6 79.33 79.33 0 0 1 11.2 1.3c3.63 0.66 7 1.43 10.44 2.26 13.75 3.29 27 8.13 39.7 12.58s25.17 7.73 39.29 5.21a43.48 43.48 0 0 1-20.33 7.25 84.32 84.32 0 0 1-21.79-1.06c-14.08-2.42-27.19-6-40.39-8.94l-9.82-2.12c-3.11-0.64-6.23-1.07-9.36-1.46a87.16 87.16 0 0 0-18.8 0 84.9 84.9 0 0 0-18.82 4.39c-3.14 1.09-6.28 2.33-9.43 3.76-3.22 1.2-6.26 3.34-10.01 3.65zM711.67 692.48c7.8-9.57 18.78-16.35 30.89-20.34a65.52 65.52 0 0 1 38.64-0.53 68 68 0 0 1 17.8 8.31l7 4.88a53.27 53.27 0 0 0 6.8 3.75c9.37 4.47 20.54 5.43 32.76 3.93a43.1 43.1 0 0 1-36.63 7.74 47.35 47.35 0 0 1-9.47-3.3c-3.07-1.36-6-3.23-8.13-4.33a75.12 75.12 0 0 0-46.16-8.6c-10.97 1.2-22.08 4.26-33.5 8.49zM211 789.22a299.49 299.49 0 0 1 33.6-25.54 210.61 210.61 0 0 1 37.82-20 96 96 0 0 1 21.46-5.68 62.31 62.31 0 0 1 11.65-0.57 69.49 69.49 0 0 1 11.54 1.9c14.89 3.73 27.46 11.14 39.84 16.81a203.52 203.52 0 0 0 37.67 13.83 195.29 195.29 0 0 0 39.61 5.39 339.15 339.15 0 0 0 80.81-6.9c26.67-5.21 52.41-14.13 78.45-24.13 26.08-9.58 53.32-20.14 82.37-23.47a227.43 227.43 0 0 1 85.73 6 198.88 198.88 0 0 1 39.91 15.33 109.07 109.07 0 0 1 17.9 11.63L846 766.69l-18.36-10.27a105.66 105.66 0 0 0-18.55-9 206.41 206.41 0 0 0-39.74-10.62 236.73 236.73 0 0 0-81.08 0 272.52 272.52 0 0 0-39.08 10.67c-12.87 4.52-25.64 9.81-38.62 15.13-26 10.52-53.2 20.32-81.48 26.07a367.52 367.52 0 0 1-42.78 5.71 287.2 287.2 0 0 1-43.29 0.34 214 214 0 0 1-43.18-7.41 190.55 190.55 0 0 1-40.24-16.93c-12.58-6.81-24.19-14.09-36.29-18.15a58.49 58.49 0 0 0-9-2.26 50.06 50.06 0 0 0-9.3-0.27 89.61 89.61 0 0 0-19.41 3.55c-13 3.6-25.73 9.21-38.17 15.33s-24.56 13.11-36.43 20.64zM323 840.88c9.17-13.33 23.6-23 39.46-28.36s33.59-5.87 50-2.37a125.28 125.28 0 0 1 23.85 7.66 188 188 0 0 1 21.28 11.41 186.74 186.74 0 0 0 20.21 10.32c7 2.79 14.18 5.58 22.27 5.82-7.41 3.89-16.37 3.77-24.54 2.78-8.33-1-16.29-3.6-24-6.64-7.86-3.37-14.13-6.74-21.21-9.54a146.06 146.06 0 0 0-21.22-6.78 109.8 109.8 0 0 0-43.86-1.65A108.06 108.06 0 0 0 323 840.88zM586.42 827.65c3.83-7.58 9.35-14.2 15.57-20.18a94.09 94.09 0 0 1 10.21-8.15 80.25 80.25 0 0 1 11.73-6.32 61.47 61.47 0 0 1 26.84-5.22 63.67 63.67 0 0 1 26.69 6.85c8.6 4.44 14.23 8.69 21.35 12.06a112.26 112.26 0 0 0 21.74 7.82c15.12 3.71 31.28 3.33 47.81 0.52a83.84 83.84 0 0 1-49.6 10.78 94.55 94.55 0 0 1-25.64-6.09c-8.1-3.12-16.17-8.26-22.34-11.18-13.32-6.48-28-7.61-42.61-3.61s-28.58 12.39-41.75 22.72z" fill="#FFFFFF" p-id="3653"></path><path d="M512 960C265 960 64 759 64 512S265 64 512 64s448 201 448 448-201 448-448 448z m0-870.1C279.25 89.9 89.9 279.25 89.9 512S279.25 934.1 512 934.1 934.1 744.75 934.1 512 744.75 89.9 512 89.9z" fill="#1B1E3B" p-id="3654"></path><path d="M518.82 219.34a64.63 64.63 0 0 0-16.66-3.34 64.66 64.66 0 0 1-40.66 118.1 64.71 64.71 0 1 0 57.32-114.78z" fill="#FFFFFF" p-id="3655"></path></svg>